# xmcd
# 
# Track frame offsets:
#     150
#     18380
#     40598
#     67950
#     87410
#     107850
#     127105
#     143510
#     164103
#     187160
#     208288
#     226618
#     248390
#     265957
# 
# Disc length: 3770
# 
# Revision: 2
# Processed by: cddbd v1.5.2PL0 Copyright (c) Steve Scherf et al.
# Submitted via: BonkEnc v1.0.6
# 
DISCID=c30eb80e
DTITLE=Josh Groban - Closer
DYEAR=2003
DGENRE=Vocal
TTITLE0=Oceano
TTITLE1=My Confession
TTITLE2=Mi Mancherai (il postino)
TTITLE3=Si Volvieras A Mi
TTITLE4=When You Say You Love Me
TTITLE5=Per Te
TTITLE6=All'improvviso Amore
TTITLE7=Broken Vow
TTITLE8=Caruso
TTITLE9=Remember When It Rained
TTITLE10=Hymne A L'Amour
TTITLE11=You Raise Me Up
TTITLE12=Never Let Go
TTITLE13=She's Out Of My Life
EXTD=YEAR: 2003
EXTT0=
EXTT1=
EXTT2=
EXTT3=
EXTT4=
EXTT5=
EXTT6=
EXTT7=
EXTT8=
EXTT9=
EXTT10=
EXTT11=
EXTT12=
EXTT13=
PLAYORDER=
